<?xml version="1.0" encoding="UTF-8" standalone="no"?>
<!DOCTYPE svg PUBLIC "-//W3C//DTD SVG 1.1//EN"
 "http://www.w3.org/Graphics/SVG/1.1/DTD/svg11.dtd">
<!-- Generated by graphviz version 2.43.0 (0)
 -->
<!-- Title: G Pages: 1 -->
<svg width="611pt" height="476pt"
 viewBox="0.00 0.00 611.00 476.00" xmlns="http://www.w3.org/2000/svg" xmlns:xlink="http://www.w3.org/1999/xlink">
<g id="graph0" class="graph" transform="scale(1 1) rotate(0) translate(4 472)">
<title>G</title>
<polygon fill="white" stroke="transparent" points="-4,4 -4,-472 607,-472 607,4 -4,4"/>
<text text-anchor="start" x="112.5" y="-450.6" font-family="Times,serif" font-weight="bold" font-size="18.00">Telegram Bot &#45; Software Architecture</text>
<g id="clust1" class="cluster">
<title>cluster_bot</title>
<path fill="#e8f4f8" stroke="#3498db" d="M20,-94C20,-94 583,-94 583,-94 589,-94 595,-100 595,-106 595,-106 595,-290 595,-290 595,-296 589,-302 583,-302 583,-302 20,-302 20,-302 14,-302 8,-296 8,-290 8,-290 8,-106 8,-106 8,-100 14,-94 20,-94"/>
<text text-anchor="start" x="240.5" y="-287.8" font-family="Times,serif" font-weight="bold" font-size="14.00">Bot Application</text>
</g>
<g id="clust2" class="cluster">
<title>cluster_handlers</title>
<path fill="#d4edda" stroke="#27ae60" d="M273,-196C273,-196 575,-196 575,-196 581,-196 587,-202 587,-208 587,-208 587,-259 587,-259 587,-265 581,-271 575,-271 575,-271 273,-271 273,-271 267,-271 261,-265 261,-259 261,-259 261,-208 261,-208 261,-202 267,-196 273,-196"/>
<text text-anchor="middle" x="424" y="-255.8" font-family="Times,serif" font-size="14.00">Handlers</text>
</g>
<g id="clust3" class="cluster">
<title>cluster_services</title>
<path fill="#fff3cd" stroke="#f39c12" d="M28,-102C28,-102 478,-102 478,-102 484,-102 490,-108 490,-114 490,-114 490,-165 490,-165 490,-171 484,-177 478,-177 478,-177 28,-177 28,-177 22,-177 16,-171 16,-165 16,-165 16,-114 16,-114 16,-108 22,-102 28,-102"/>
<text text-anchor="middle" x="253" y="-161.8" font-family="Times,serif" font-size="14.00">Services</text>
</g>
<g id="clust4" class="cluster">
<title>cluster_external</title>
<path fill="#f8f9fa" stroke="#6c757d" d="M63,-8C63,-8 468,-8 468,-8 474,-8 480,-14 480,-20 480,-20 480,-71 480,-71 480,-77 474,-83 468,-83 468,-83 63,-83 63,-83 57,-83 51,-77 51,-71 51,-71 51,-20 51,-20 51,-14 57,-8 63,-8"/>
<text text-anchor="start" x="197" y="-68.8" font-family="Times,serif" font-weight="bold" font-size="14.00">External Systems</text>
</g>
<!-- user -->
<g id="node1" class="node">
<title>user</title>
<ellipse fill="#34495e" stroke="black" stroke-width="1.5" cx="540" cy="-422" rx="31.58" ry="18"/>
<text text-anchor="start" x="521" y="-420.5" font-family="Helvetica Neue,Helvetica,Arial,sans-serif" font-weight="bold" font-size="10.00" fill="white">👤 User</text>
</g>
<!-- telegram -->
<g id="node2" class="node">
<title>telegram</title>
<path fill="#0088cc" stroke="black" stroke-width="1.5" d="M557.5,-346C557.5,-346 522.5,-346 522.5,-346 516.5,-346 510.5,-340 510.5,-334 510.5,-334 510.5,-322 510.5,-322 510.5,-316 516.5,-310 522.5,-310 522.5,-310 557.5,-310 557.5,-310 563.5,-310 569.5,-316 569.5,-322 569.5,-322 569.5,-334 569.5,-334 569.5,-340 563.5,-346 557.5,-346"/>
<text text-anchor="start" x="518.5" y="-326.5" font-family="Helvetica Neue,Helvetica,Arial,sans-serif" font-weight="bold" font-size="10.00" fill="white">Telegram</text>
</g>
<!-- user&#45;&gt;telegram -->
<g id="edge1" class="edge">
<title>user&#45;&gt;telegram</title>
<path fill="none" stroke="black" stroke-width="1.5" d="M540,-403.88C540,-403.88 540,-356.07 540,-356.07"/>
<polygon fill="black" stroke="black" stroke-width="1.5" points="543.5,-356.07 540,-346.07 536.5,-356.07 543.5,-356.07"/>
</g>
<!-- commands -->
<g id="node3" class="node">
<title>commands</title>
<path fill="#27ae60" stroke="black" stroke-width="1.5" d="M567,-240C567,-240 513,-240 513,-240 507,-240 501,-234 501,-228 501,-228 501,-216 501,-216 501,-210 507,-204 513,-204 513,-204 567,-204 567,-204 573,-204 579,-210 579,-216 579,-216 579,-228 579,-228 579,-234 573,-240 567,-240"/>
<text text-anchor="middle" x="540" y="-219.5" font-family="Helvetica Neue,Helvetica,Arial,sans-serif" font-size="10.00" fill="white">commands.py</text>
</g>
<!-- telegram&#45;&gt;commands -->
<g id="edge2" class="edge">
<title>telegram&#45;&gt;commands</title>
<path fill="none" stroke="black" stroke-width="1.5" d="M540,-309.54C540,-309.54 540,-295.65 540,-281.32"/>
<polygon fill="black" stroke="black" stroke-width="1.5" points="543.5,-281 540,-271 536.5,-281 543.5,-281"/>
</g>
<!-- callbacks -->
<g id="node4" class="node">
<title>callbacks</title>
<path fill="#27ae60" stroke="black" stroke-width="1.5" d="M445.5,-240C445.5,-240 398.5,-240 398.5,-240 392.5,-240 386.5,-234 386.5,-228 386.5,-228 386.5,-216 386.5,-216 386.5,-210 392.5,-204 398.5,-204 398.5,-204 445.5,-204 445.5,-204 451.5,-204 457.5,-210 457.5,-216 457.5,-216 457.5,-228 457.5,-228 457.5,-234 451.5,-240 445.5,-240"/>
<text text-anchor="middle" x="422" y="-219.5" font-family="Helvetica Neue,Helvetica,Arial,sans-serif" font-size="10.00" fill="white">callbacks.py</text>
</g>
<!-- network_svc -->
<g id="node6" class="node">
<title>network_svc</title>
<path fill="#f39c12" stroke="black" stroke-width="1.5" d="M469.5,-146C469.5,-146 406.5,-146 406.5,-146 400.5,-146 394.5,-140 394.5,-134 394.5,-134 394.5,-122 394.5,-122 394.5,-116 400.5,-110 406.5,-110 406.5,-110 469.5,-110 469.5,-110 475.5,-110 481.5,-116 481.5,-122 481.5,-122 481.5,-134 481.5,-134 481.5,-140 475.5,-146 469.5,-146"/>
<text text-anchor="middle" x="438" y="-125.5" font-family="Helvetica Neue,Helvetica,Arial,sans-serif" font-size="10.00" fill="white">NetworkService</text>
</g>
<!-- callbacks&#45;&gt;network_svc -->
<g id="edge4" class="edge">
<title>callbacks&#45;&gt;network_svc</title>
<path fill="none" stroke="black" stroke-width="1.5" d="M436.5,-203.88C436.5,-203.88 436.5,-196.31 436.5,-187.21"/>
<polygon fill="black" stroke="black" stroke-width="1.5" points="440,-187 436.5,-177 433,-187 440,-187"/>
</g>
<!-- keyboards -->
<g id="node10" class="node">
<title>keyboards</title>
<path fill="#3498db" stroke="black" stroke-width="1.5" d="M575,-146C575,-146 537,-146 537,-146 531,-146 525,-140 525,-134 525,-134 525,-122 525,-122 525,-116 531,-110 537,-110 537,-110 575,-110 575,-110 581,-110 587,-116 587,-122 587,-122 587,-134 587,-134 587,-140 581,-146 575,-146"/>
<text text-anchor="middle" x="556" y="-125.5" font-family="Helvetica Neue,Helvetica,Arial,sans-serif" font-size="10.00" fill="white">Keyboards</text>
</g>
<!-- callbacks&#45;&gt;keyboards -->
<g id="edge3" class="edge">
<title>callbacks&#45;&gt;keyboards</title>
<path fill="none" stroke="black" stroke-width="1.5" d="M457.84,-222C474.74,-222 491.25,-222 491.25,-222 491.25,-222 491.25,-128 491.25,-128 491.25,-128 514.76,-128 514.76,-128"/>
<polygon fill="black" stroke="black" stroke-width="1.5" points="514.76,-131.5 524.76,-128 514.76,-124.5 514.76,-131.5"/>
</g>
<!-- messages -->
<g id="node5" class="node">
<title>messages</title>
<path fill="#27ae60" stroke="black" stroke-width="1.5" d="M331.5,-240C331.5,-240 280.5,-240 280.5,-240 274.5,-240 268.5,-234 268.5,-228 268.5,-228 268.5,-216 268.5,-216 268.5,-210 274.5,-204 280.5,-204 280.5,-204 331.5,-204 331.5,-204 337.5,-204 343.5,-210 343.5,-216 343.5,-216 343.5,-228 343.5,-228 343.5,-234 337.5,-240 331.5,-240"/>
<text text-anchor="middle" x="306" y="-219.5" font-family="Helvetica Neue,Helvetica,Arial,sans-serif" font-size="10.00" fill="white">messages.py</text>
</g>
<!-- vpn_mgr -->
<g id="node14" class="node">
<title>vpn_mgr</title>
<path fill="#9b59b6" stroke="black" stroke-width="1.5" d="M460,-52C460,-52 406,-52 406,-52 400,-52 394,-46 394,-40 394,-40 394,-28 394,-28 394,-22 400,-16 406,-16 406,-16 460,-16 460,-16 466,-16 472,-22 472,-28 472,-28 472,-40 472,-40 472,-46 466,-52 460,-52"/>
<text text-anchor="middle" x="433" y="-31.5" font-family="Helvetica Neue,Helvetica,Arial,sans-serif" font-size="10.00" fill="white">VPN Manager</text>
</g>
<!-- network_svc&#45;&gt;vpn_mgr -->
<g id="edge5" class="edge">
<title>network_svc&#45;&gt;vpn_mgr</title>
<path fill="none" stroke="black" stroke-width="1.5" d="M433.25,-109.88C433.25,-109.88 433.25,-62.07 433.25,-62.07"/>
<polygon fill="black" stroke="black" stroke-width="1.5" points="436.75,-62.07 433.25,-52.07 429.75,-62.07 436.75,-62.07"/>
</g>
<!-- pihole_svc -->
<g id="node7" class="node">
<title>pihole_svc</title>
<path fill="#f39c12" stroke="black" stroke-width="1.5" d="M339.5,-146C339.5,-146 286.5,-146 286.5,-146 280.5,-146 274.5,-140 274.5,-134 274.5,-134 274.5,-122 274.5,-122 274.5,-116 280.5,-110 286.5,-110 286.5,-110 339.5,-110 339.5,-110 345.5,-110 351.5,-116 351.5,-122 351.5,-122 351.5,-134 351.5,-134 351.5,-140 345.5,-146 339.5,-146"/>
<text text-anchor="middle" x="313" y="-125.5" font-family="Helvetica Neue,Helvetica,Arial,sans-serif" font-size="10.00" fill="white">PiholeService</text>
</g>
<!-- pihole_api -->
<g id="node12" class="node">
<title>pihole_api</title>
<path fill="#96060c" stroke="black" stroke-width="1.5" d="M338.5,-52C338.5,-52 297.5,-52 297.5,-52 291.5,-52 285.5,-46 285.5,-40 285.5,-40 285.5,-28 285.5,-28 285.5,-22 291.5,-16 297.5,-16 297.5,-16 338.5,-16 338.5,-16 344.5,-16 350.5,-22 350.5,-28 350.5,-28 350.5,-40 350.5,-40 350.5,-46 344.5,-52 338.5,-52"/>
<text text-anchor="middle" x="318" y="-31.5" font-family="Helvetica Neue,Helvetica,Arial,sans-serif" font-size="10.00" fill="white">Pi&#45;hole API</text>
</g>
<!-- pihole_svc&#45;&gt;pihole_api -->
<g id="edge6" class="edge">
<title>pihole_svc&#45;&gt;pihole_api</title>
<path fill="none" stroke="black" stroke-width="1.5" d="M318,-109.88C318,-109.88 318,-62.07 318,-62.07"/>
<polygon fill="black" stroke="black" stroke-width="1.5" points="321.5,-62.07 318,-52.07 314.5,-62.07 321.5,-62.07"/>
</g>
<!-- system_svc -->
<g id="node8" class="node">
<title>system_svc</title>
<path fill="#f39c12" stroke="black" stroke-width="1.5" d="M219.5,-146C219.5,-146 160.5,-146 160.5,-146 154.5,-146 148.5,-140 148.5,-134 148.5,-134 148.5,-122 148.5,-122 148.5,-116 154.5,-110 160.5,-110 160.5,-110 219.5,-110 219.5,-110 225.5,-110 231.5,-116 231.5,-122 231.5,-122 231.5,-134 231.5,-134 231.5,-140 225.5,-146 219.5,-146"/>
<text text-anchor="middle" x="190" y="-125.5" font-family="Helvetica Neue,Helvetica,Arial,sans-serif" font-size="10.00" fill="white">SystemService</text>
</g>
<!-- system_api -->
<g id="node13" class="node">
<title>system_api</title>
<path fill="#e74c3c" stroke="black" stroke-width="1.5" d="M121,-52C121,-52 71,-52 71,-52 65,-52 59,-46 59,-40 59,-40 59,-28 59,-28 59,-22 65,-16 71,-16 71,-16 121,-16 121,-16 127,-16 133,-22 133,-28 133,-28 133,-40 133,-40 133,-46 127,-52 121,-52"/>
<text text-anchor="middle" x="96" y="-31.5" font-family="Helvetica Neue,Helvetica,Arial,sans-serif" font-size="10.00" fill="white">System APIs</text>
</g>
<!-- system_svc&#45;&gt;system_api -->
<g id="edge7" class="edge">
<title>system_svc&#45;&gt;system_api</title>
<path fill="none" stroke="black" stroke-width="1.5" d="M162.25,-109.88C162.25,-82.56 162.25,-34 162.25,-34 162.25,-34 143.38,-34 143.38,-34"/>
<polygon fill="black" stroke="black" stroke-width="1.5" points="143.38,-30.5 133.38,-34 143.38,-37.5 143.38,-30.5"/>
</g>
<!-- docker -->
<g id="node15" class="node">
<title>docker</title>
<path fill="#2496ed" stroke="black" stroke-width="1.5" d="M230,-52C230,-52 188,-52 188,-52 182,-52 176,-46 176,-40 176,-40 176,-28 176,-28 176,-22 182,-16 188,-16 188,-16 230,-16 230,-16 236,-16 242,-22 242,-28 242,-28 242,-40 242,-40 242,-46 236,-52 230,-52"/>
<text text-anchor="middle" x="209" y="-31.5" font-family="Helvetica Neue,Helvetica,Arial,sans-serif" font-size="10.00" fill="white">Docker API</text>
</g>
<!-- system_svc&#45;&gt;docker -->
<g id="edge8" class="edge">
<title>system_svc&#45;&gt;docker</title>
<path fill="none" stroke="black" stroke-width="1.5" d="M203.75,-109.88C203.75,-109.88 203.75,-62.07 203.75,-62.07"/>
<polygon fill="black" stroke="black" stroke-width="1.5" points="207.25,-62.07 203.75,-52.07 200.25,-62.07 207.25,-62.07"/>
</g>
<!-- device_svc -->
<g id="node9" class="node">
<title>device_svc</title>
<path fill="#f39c12" stroke="black" stroke-width="1.5" d="M93.5,-146C93.5,-146 36.5,-146 36.5,-146 30.5,-146 24.5,-140 24.5,-134 24.5,-134 24.5,-122 24.5,-122 24.5,-116 30.5,-110 36.5,-110 36.5,-110 93.5,-110 93.5,-110 99.5,-110 105.5,-116 105.5,-122 105.5,-122 105.5,-134 105.5,-134 105.5,-140 99.5,-146 93.5,-146"/>
<text text-anchor="middle" x="65" y="-125.5" font-family="Helvetica Neue,Helvetica,Arial,sans-serif" font-size="10.00" fill="white">DeviceService</text>
</g>
<!-- monitor -->
<g id="node11" class="node">
<title>monitor</title>
<path fill="#9b59b6" stroke="black" stroke-width="1.5" d="M213.5,-240C213.5,-240 148.5,-240 148.5,-240 142.5,-240 136.5,-234 136.5,-228 136.5,-228 136.5,-216 136.5,-216 136.5,-210 142.5,-204 148.5,-204 148.5,-204 213.5,-204 213.5,-204 219.5,-204 225.5,-210 225.5,-216 225.5,-216 225.5,-228 225.5,-228 225.5,-234 219.5,-240 213.5,-240"/>
<text text-anchor="middle" x="181" y="-219.5" font-family="Helvetica Neue,Helvetica,Arial,sans-serif" font-size="10.00" fill="white">Network Monitor</text>
</g>
<!-- monitor&#45;&gt;network_svc -->
<g id="edge9" class="edge">
<title>monitor&#45;&gt;network_svc</title>
<path fill="none" stroke="black" stroke-width="1.5" stroke-dasharray="5,2" d="M187,-203.96C187,-190.71 187,-175 187,-175 187,-175 415.5,-175 415.5,-175 415.5,-175 415.5,-156.04 415.5,-156.04"/>
<polygon fill="black" stroke="black" stroke-width="1.5" points="419,-156.04 415.5,-146.04 412,-156.04 419,-156.04"/>
</g>
</g>
</svg>
